<?xml version="1.0" standalone="no"?>
<!DOCTYPE svg PUBLIC "-//W3C//DTD SVG 20010904//EN"
 "http://www.w3.org/TR/2001/REC-SVG-20010904/DTD/svg10.dtd">
<svg version="1.0" xmlns="http://www.w3.org/2000/svg"
 width="238.000000pt" height="206.000000pt" viewBox="0 0 238.000000 206.000000"
 preserveAspectRatio="xMidYMid meet">

<g transform="translate(0.000000,206.000000) scale(0.100000,-0.100000)"
fill="#000000" stroke="none">
<path d="M920 1832 c-24 -19 -21 -42 5 -42 12 0 45 -87 45 -119 0 -6 9 -11 20
-11 24 0 24 7 4 76 -12 43 -13 58 -4 69 32 39 -28 61 -70 27z"/>
<path d="M1110 1615 c0 -3 18 -33 41 -66 38 -56 42 -59 58 -45 17 15 20 9 49
-88 18 -57 32 -106 32 -109 0 -3 -26 -22 -59 -41 -32 -20 -61 -44 -64 -55 -4
-17 7 -19 115 -31 65 -7 121 -16 123 -20 2 -4 -15 -13 -38 -19 -214 -63 -207
-59 -207 -95 l0 -32 183 -25 c100 -14 183 -24 185 -23 2 1 -9 111 -24 244 -20
175 -33 249 -46 270 -23 39 -111 82 -223 109 -49 12 -98 24 -107 27 -10 3 -18
3 -18 -1z"/>
<path d="M996 1519 c-20 -16 -26 -29 -26 -59 0 -70 72 -103 126 -57 20 17 27
33 27 57 0 24 -7 40 -27 57 -34 28 -65 29 -100 2z"/>
<path d="M792 1501 c-11 -7 -11 -54 5 -279 15 -226 20 -270 32 -263 12 8 12
46 1 257 -14 272 -18 298 -38 285z"/>
<path d="M695 1365 c0 -55 3 -65 18 -65 14 0 17 10 17 65 0 56 -3 65 -18 65
-15 0 -18 -9 -17 -65z"/>
<path d="M573 950 c-18 -11 -33 -23 -33 -27 0 -5 28 -16 62 -26 52 -15 71 -28
127 -85 39 -39 78 -91 94 -124 23 -49 63 -175 82 -263 6 -27 8 -28 17 -11 27
48 -16 266 -74 381 -71 141 -189 208 -275 155z"/>
<path d="M1220 919 c273 -41 362 -73 411 -151 32 -49 101 -208 133 -305 l17
-52 44 31 44 31 -89 177 -88 177 -79 32 c-138 59 -249 81 -392 80 l-126 -1
125 -19z"/>
<path d="M460 842 l-25 -20 52 -48 c76 -72 98 -127 96 -239 -1 -49 -3 -101 -5
-115 -3 -23 1 -25 38 -28 61 -5 69 11 68 137 -1 158 -39 272 -102 305 -52 27
-96 29 -122 8z"/>
</g>
</svg>
