<?xml version="1.0" encoding="utf-8"?>
<!-- Generator: Adobe Illustrator 26.0.0, SVG Export Plug-In . SVG Version: 6.00 Build 0)  -->
<svg version="1.1" id="图层_1" xmlns="http://www.w3.org/2000/svg" xmlns:xlink="http://www.w3.org/1999/xlink" x="0px" y="0px"
	 viewBox="0 0 590 607" style="enable-background:new 0 0 590 607;" xml:space="preserve">
<style type="text/css">
	.st0{fill:url(#SVGID_1_);}
	.st1{fill:#FEB511;}
	.st2{fill:#FDA510;}
	.st3{fill:url(#SVGID_00000169535062372372305790000011607611960314406043_);}
	.st4{fill:url(#SVGID_00000075883409663094768230000011096074205257277094_);}
	.st5{fill:url(#SVGID_00000145020868085349002780000008427038447376084113_);}
	.st6{fill:url(#SVGID_00000008142489433124938740000005329373502784713344_);}
	.st7{fill:#4DB2E6;}
	.st8{fill:#FCC014;}
	.st9{fill:#FCA203;}
	.st10{fill:url(#SVGID_00000121278684757994045380000001583794726547794092_);}
	.st11{fill:url(#SVGID_00000022561990632336328980000008418289983325172142_);}
	.st12{fill:url(#SVGID_00000091704719857912835970000007260331584586625687_);}
	.st13{fill:url(#SVGID_00000173157177709822019990000007043151779121202349_);}
	.st14{fill:none;stroke:#FF0000;stroke-miterlimit:10;}
	.st15{fill:url(#SVGID_00000139290231607674492230000009432651834692548010_);}
	.st16{fill:url(#SVGID_00000011015881540232604090000005802511011744671159_);}
	.st17{fill:url(#SVGID_00000172400128027588508100000016449765717677836477_);}
	.st18{fill:url(#SVGID_00000156557193302648674770000017013046082436093594_);}
</style>
<g>
	<linearGradient id="SVGID_1_" gradientUnits="userSpaceOnUse" x1="382.5896" y1="161.9405" x2="507.5307" y2="319.2082">
		<stop  offset="0" style="stop-color:#FBA01C"/>
		<stop  offset="0.6501" style="stop-color:#FC6B2E"/>
		<stop  offset="1" style="stop-color:#FC5336"/>
	</linearGradient>
	<path class="st0" d="M327.57,154.61l73.96,0c8.4,0,16.76,1.21,24.8,3.66c37.16,11.34,132.96,53.17,120.16,180.63
		c-0.02,0.18-0.28,0.23-0.33,0.06c-2.83-8.85-30.62-89.04-117.09-114.52c-9.07-2.67-18.57-3.58-27.99-2.76
		c-18.2,1.58-52.62,2.99-64.51-7.41c-13.48-11.8-25.59-30.5-22.73-48.19C314.92,159.42,320.83,154.61,327.57,154.61z"/>
	<path class="st1" d="M387.34,154.61l-37.13,65.68c0,0-23.85-2.92-36.22-42.53c0,0-6.11-23.16,16.47-23.16
		C353.03,154.61,387.34,154.61,387.34,154.61z"/>
	<path class="st2" d="M394.18,166.95l-32.04,55.18c0,0,21.78,1.7,33.08,0c0,0,19.57-1.98,29.84,1.24
		c10.26,3.23,26.1,9.11,30.52,11.31L394.18,166.95z"/>
</g>
<g>
	
		<linearGradient id="SVGID_00000090997918091355749880000001122443287346369982_" gradientUnits="userSpaceOnUse" x1="214.7956" y1="435.1335" x2="67.5876" y2="309.0788">
		<stop  offset="0" style="stop-color:#709FF9"/>
		<stop  offset="0.2942" style="stop-color:#749DF7"/>
		<stop  offset="0.5578" style="stop-color:#7E99F0"/>
		<stop  offset="0.809" style="stop-color:#9191E6"/>
		<stop  offset="1" style="stop-color:#A489DA"/>
	</linearGradient>
	<path style="fill:url(#SVGID_00000090997918091355749880000001122443287346369982_);" d="M265.32,452.96l-74.43,0
		c-8.46,0-16.87-1.22-24.96-3.69c-37.4-11.42-133.81-53.51-120.93-181.79c0.02-0.19,0.28-0.24,0.34-0.06
		c2.84,8.91,30.81,89.62,117.84,115.25c9.13,2.69,18.69,3.6,28.17,2.78c18.32-1.59,52.96-3,64.92,7.46
		c13.57,11.87,25.75,30.7,22.88,48.5C278.05,448.12,272.1,452.96,265.32,452.96z"/>
	
		<linearGradient id="SVGID_00000070841356984553646060000010350530978141170837_" gradientUnits="userSpaceOnUse" x1="242.4217" y1="453.1444" x2="242.7531" y2="386.8545">
		<stop  offset="0" style="stop-color:#92B2EF"/>
		<stop  offset="0.3638" style="stop-color:#9CB3EE"/>
		<stop  offset="0.8492" style="stop-color:#A5B4ED"/>
	</linearGradient>
	<path style="fill:url(#SVGID_00000070841356984553646060000010350530978141170837_);" d="M205.17,452.96l37.37-66.1
		c0,0,24,2.93,36.46,42.8c0,0,6.15,23.3-16.58,23.3S205.17,452.96,205.17,452.96z"/>
	
		<linearGradient id="SVGID_00000107573940039413046620000005208870066034223013_" gradientUnits="userSpaceOnUse" x1="183.2713" y1="425.8449" x2="183.7891" y2="322.291">
		<stop  offset="0" style="stop-color:#8CADFA"/>
		<stop  offset="0.0463" style="stop-color:#8FADF9"/>
		<stop  offset="0.4773" style="stop-color:#A7AFF2"/>
		<stop  offset="0.743" style="stop-color:#B0B0F0"/>
	</linearGradient>
	<path style="fill:url(#SVGID_00000107573940039413046620000005208870066034223013_);" d="M198.29,440.54L230.53,385
		c0,0-21.92-1.71-33.29,0c0,0-19.7,2-30.03-1.25c-10.33-3.25-26.27-9.17-30.72-11.39L198.29,440.54z"/>
</g>
<linearGradient id="SVGID_00000131330526834972606040000014574938184544437399_" gradientUnits="userSpaceOnUse" x1="537.0802" y1="127.9407" x2="559.3703" y2="187.4145">
	<stop  offset="0" style="stop-color:#FB9E1B"/>
	<stop  offset="0.5538" style="stop-color:#F8821F"/>
	<stop  offset="1" style="stop-color:#F66922"/>
</linearGradient>
<path style="fill:url(#SVGID_00000131330526834972606040000014574938184544437399_);" d="M548.04,125.44
	c-17.53,0-31.75,14.21-31.75,31.75c0,17.53,14.21,31.75,31.75,31.75s31.75-14.21,31.75-31.75
	C579.79,139.65,565.58,125.44,548.04,125.44z M548.04,169.89c-7.01,0-12.7-5.69-12.7-12.7s5.69-12.7,12.7-12.7
	c7.01,0,12.7,5.69,12.7,12.7S555.06,169.89,548.04,169.89z"/>
<path class="st7" d="M44.03,416.43c-17.53,0-31.75,14.21-31.75,31.75c0,17.53,14.21,31.75,31.75,31.75s31.75-14.21,31.75-31.75
	C75.78,430.64,61.57,416.43,44.03,416.43z M44.03,460.87c-7.01,0-12.7-5.69-12.7-12.7s5.69-12.7,12.7-12.7s12.7,5.69,12.7,12.7
	S51.05,460.87,44.03,460.87z"/>
<g>
	<path class="st8" d="M414.6,10.46c12.33-0.73,48.71-0.42,68.92-0.19c6.94,0.08,11.4,7.31,8.44,13.59
		c-12.58,26.69-48.52,83.92-125.51,83.92c-93.23,0-135.22-14.13-175.19,34.7c-7.93,9.68-13.16,21.29-14.61,33.72
		c-2.49,21.31,1.82,54.28,42.65,78.32c9.97,5.87,21.35,8.97,32.92,8.97h119.14c23.56,0,46.75,6.13,67.04,18.11
		c26.52,15.65,58.24,42.78,69.42,86.39c0,0,36.57,113.36-73.38,181.18c-13.97,8.62-29.42,14.53-45.59,17.4
		c-10.06,1.79-23.07,3.48-38.8,4.26c-36.41,1.82-126.36,0.41-145.98,0.07c-3.04-0.05-6.02,0.65-8.71,2.06
		c-4.86,2.54-12.34,7.65-17.73,16.84c-1.05,1.79-2.97,2.9-5.05,2.9l-69.26,0c-6.17,0-10.22-6.38-7.65-11.99
		c10.77-23.51,42.92-74.03,122.25-81.34c2.02-0.19,4.06-0.26,6.09-0.26H334c5.25,0,10.48-0.63,15.57-1.96
		c18.54-4.86,57.59-20.87,63.34-70.28c1.21-10.36-0.14-20.9-4.1-30.55c-6.83-16.67-22.12-42.46-52.98-49.54
		c-4.14-0.95-8.39-1.34-12.64-1.34H204.21c-4.98,0-9.93-0.53-14.79-1.62c-21.45-4.81-75.67-22.79-101.62-84.43
		c-32.78-77.86-4.1-180.3,88.1-215.14c0,0,30.73-12.29,69.66-12.29s137.28,0,137.28,0s9.25-1.85,17.2-10.82c1-1.13,2-2.23,3.1-3.25
		C406.24,15.01,412.23,10.59,414.6,10.46z"/>
	<path class="st9" d="M400.04,21.15c0,0,1.42,48.89-63.21,86.2c0,0-82.09-5.17-101.02,3.78c0,0-20.98-1.3-53.76,10.99
		c0,0,17.64-65.57,71.31-90.15h129.48C382.85,31.97,396.75,26.73,400.04,21.15z"/>
	
		<linearGradient id="SVGID_00000090274882765984434930000010933301832613617806_" gradientUnits="userSpaceOnUse" x1="270.6646" y1="110.51" x2="274.5421" y2="357.6927">
		<stop  offset="0" style="stop-color:#FF7900"/>
		<stop  offset="0.3196" style="stop-color:#FC6D15"/>
		<stop  offset="0.9755" style="stop-color:#F34F4A"/>
		<stop  offset="1" style="stop-color:#F34E4C"/>
	</linearGradient>
	<path style="fill:url(#SVGID_00000090274882765984434930000010933301832613617806_);" d="M235.82,111.13
		c0,0-42.38,11.28-55.17,52.74c-12.78,41.41,15.77,72.74,15.77,72.74s26.05,27.27,69.64,53.52c47.53,28.62,50.96-22.62,111.51,65.94
		c0,0-13.7-10.62-36.99-10.62c-23.3,0-111.62,0-111.62,0S179,310,173.37,261.15c-5.62-48.77-8.73-115.47,8.68-139.03
		C182.05,122.12,215.82,110.38,235.82,111.13z"/>
	
		<linearGradient id="SVGID_00000046333828717796345070000000614684325357434008_" gradientUnits="userSpaceOnUse" x1="424.7403" y1="349.7044" x2="428.2029" y2="570.441">
		<stop  offset="0" style="stop-color:#BEAFE8"/>
		<stop  offset="0.2163" style="stop-color:#B6B0EA"/>
		<stop  offset="0.5596" style="stop-color:#9FB3EE"/>
		<stop  offset="0.9851" style="stop-color:#79B8F5"/>
		<stop  offset="1" style="stop-color:#78B8F5"/>
	</linearGradient>
	<path style="fill:url(#SVGID_00000046333828717796345070000000614684325357434008_);" d="M405.38,478.63
		c-0.18,0.45-7.17,42-65.62,92.6c0,0,96.57,10.88,151.78-77.74c0,0,43.76-62.02,9.53-144.98
		C501.08,348.51,505.78,449.95,405.38,478.63z"/>
	
		<linearGradient id="SVGID_00000037681181268341920580000010345578718385516189_" gradientUnits="userSpaceOnUse" x1="173.0133" y1="499.503" x2="174.4748" y2="592.6736">
		<stop  offset="0" style="stop-color:#28D5DB"/>
		<stop  offset="0.2577" style="stop-color:#1FD7DA"/>
		<stop  offset="1" style="stop-color:#07DCD6"/>
	</linearGradient>
	<path style="fill:url(#SVGID_00000037681181268341920580000010345578718385516189_);" d="M252.47,499.12c0,0-61.7-7-110.11,26.21
		c0,0-34.05,23.05-47.37,57.84c0,0-1.93,8.87,10.81,9.53c12.74,0.67,66.8,0,66.8,0s3.71,0.07,5.56-3.73
		C180,585.18,183.57,531.9,252.47,499.12z"/>
	
		<linearGradient id="SVGID_00000051355500567046607590000015016139984001685131_" gradientUnits="userSpaceOnUse" x1="114.2223" y1="167.6914" x2="203.3487" y2="288.2057">
		<stop  offset="0.2011" style="stop-color:#FB9C22"/>
		<stop  offset="0.5747" style="stop-color:#F88431"/>
		<stop  offset="1" style="stop-color:#F56445"/>
	</linearGradient>
	<path style="fill:url(#SVGID_00000051355500567046607590000015016139984001685131_);" d="M182.05,122.12
		c0,0-18.37,56.94-8.15,132.56c1.48,10.93,4.51,21.58,9.14,31.59c7.46,16.12,21.56,39.8,45.91,59.18c0,0-37.49,7.04-80.27-17.42
		c-37.23-21.28-54.04-39.75-68.73-92.1C79.95,235.94,100.1,142.61,182.05,122.12z"/>
	<path class="st14" d="M196.42,236.61"/>
	
		<linearGradient id="SVGID_00000078735142803727346510000001162693704207462053_" gradientUnits="userSpaceOnUse" x1="426.6681" y1="262.0289" x2="430.0598" y2="478.2451">
		<stop  offset="0" style="stop-color:#DC70A1"/>
		<stop  offset="0.2163" style="stop-color:#C27CB8"/>
		<stop  offset="0.5421" style="stop-color:#A28BD5"/>
		<stop  offset="0.8151" style="stop-color:#8E94E7"/>
		<stop  offset="1" style="stop-color:#8797EE"/>
	</linearGradient>
	<path style="fill:url(#SVGID_00000078735142803727346510000001162693704207462053_);" d="M352.95,263.5c0,0,43.64-4.74,81.5,15.87
		s61.9,53.74,66.63,69.14c4.72,15.4-9.74,107.5-95.69,130.13l6.04-24.91l3.04-21.31l-5.13-83.9l-32.93-50.05L352.95,263.5z"/>
	
		<linearGradient id="SVGID_00000134943519018368046120000014047002967124230034_" gradientUnits="userSpaceOnUse" x1="305.9326" y1="232.3953" x2="310.1184" y2="499.2321">
		<stop  offset="0" style="stop-color:#F86C6F"/>
		<stop  offset="0.7123" style="stop-color:#F36770"/>
		<stop  offset="0.7345" style="stop-color:#D86882"/>
		<stop  offset="0.7697" style="stop-color:#B5699B"/>
		<stop  offset="0.8069" style="stop-color:#976AAF"/>
		<stop  offset="0.8463" style="stop-color:#816ABF"/>
		<stop  offset="0.8887" style="stop-color:#716BCA"/>
		<stop  offset="0.9363" style="stop-color:#676BD1"/>
		<stop  offset="1" style="stop-color:#646BD3"/>
	</linearGradient>
	<path style="fill:url(#SVGID_00000134943519018368046120000014047002967124230034_);" d="M194.19,234.15
		c0,0,22.4,33.86,69.59,55.17s87.97,39.94,113.25,66.4c0,0,37.37,21.47,35.89,71.15c0,0-2.24,58.05-72.05,71.88l49.26-5.45
		l15.27-14.66c0,0,10.61-17.3,12.13-53.83s18.53-130.81-64.56-161.3H252.22C252.22,263.5,217.46,262.69,194.19,234.15z"/>
	
		<linearGradient id="SVGID_00000159442106896535002090000017918611391304416387_" gradientUnits="userSpaceOnUse" x1="290.6695" y1="480.4317" x2="292.357" y2="588.0067">
		<stop  offset="0" style="stop-color:#5D93DD"/>
		<stop  offset="0.5143" style="stop-color:#48A1E1"/>
		<stop  offset="1" style="stop-color:#31B0E5"/>
	</linearGradient>
	<path style="fill:url(#SVGID_00000159442106896535002090000017918611391304416387_);" d="M405.38,478.63c0,0-12.4,56.11-65.62,92.6
		l-133.95-0.3c0,0-16.19-1.08-28.17,18.88c0,0,7.97-62,74.83-90.68l88.38-0.37C340.86,498.75,366.45,495.02,405.38,478.63z"/>
	
		<linearGradient id="SVGID_00000004523776295932600290000004152135880987163065_" gradientUnits="userSpaceOnUse" x1="88.2017" y1="168.0193" x2="222.3846" y2="50.2815">
		<stop  offset="0" style="stop-color:#FBAC1B"/>
		<stop  offset="0.143" style="stop-color:#FBB21A"/>
		<stop  offset="0.5961" style="stop-color:#FCBF16"/>
		<stop  offset="1" style="stop-color:#FCC415"/>
	</linearGradient>
	<path style="fill:url(#SVGID_00000004523776295932600290000004152135880987163065_);" d="M182.05,122.12
		c0,0-74.33,19.33-102.1,113.82c0,0-23.2-75.76,29.32-143.62s144.09-60.35,144.09-60.35S214.5,52.34,182.05,122.12z"/>
</g>
</svg>
