<?xml version="1.0" standalone="no"?>
<!DOCTYPE svg PUBLIC "-//W3C//DTD SVG 20010904//EN"
 "http://www.w3.org/TR/2001/REC-SVG-20010904/DTD/svg10.dtd">
<svg version="1.0" xmlns="http://www.w3.org/2000/svg"
 width="398.000000pt" height="128.000000pt" viewBox="0 0 398.000000 128.000000"
 preserveAspectRatio="xMidYMid meet">

<g transform="translate(0.000000,128.000000) scale(0.100000,-0.100000)"
fill="#000000" stroke="none">
<path d="M2195 958 c-11 -6 -24 -17 -28 -25 -6 -10 -46 -13 -176 -13 -204 0
-204 0 -209 -116 l-4 -74 -33 29 c-48 42 -118 54 -220 40 -44 -6 -87 -11 -95
-10 -8 1 -74 3 -147 6 -121 4 -134 2 -157 -16 -14 -11 -26 -28 -26 -36 0 -14
-4 -13 -22 4 -92 84 -262 81 -340 -6 -20 -21 -37 -44 -40 -52 -4 -11 -11 -10
-39 4 -26 13 -29 17 -13 17 12 0 33 9 48 21 23 18 26 27 26 83 0 72 -11 87
-75 105 -51 14 -185 14 -222 0 -70 -26 -122 -110 -123 -194 0 -108 41 -173
128 -199 l47 -15 -66 0 c-80 -1 -100 -17 -107 -91 -6 -67 13 -95 80 -115 107
-32 253 -13 309 41 l28 27 35 -31 c80 -70 232 -70 311 0 23 19 35 25 35 16 0
-8 10 -24 23 -36 19 -18 35 -22 86 -22 52 0 66 4 86 25 24 23 25 31 25 133 0
116 3 122 50 122 18 0 18 -2 4 -35 -25 -61 -14 -153 25 -199 9 -10 35 -27 58
-38 37 -16 57 -18 170 -12 75 4 136 12 148 19 17 10 24 10 40 -1 29 -22 137
-18 166 5 20 16 24 30 27 95 l4 76 74 0 74 0 0 -75 c0 -99 14 -115 103 -115
65 0 107 18 107 46 0 19 2 19 56 -18 40 -27 58 -32 123 -36 68 -3 82 -1 131
25 31 16 65 42 77 61 23 35 27 34 38 -15 10 -50 37 -63 131 -63 61 0 85 4 94
15 12 14 15 14 30 0 12 -11 39 -15 98 -15 69 0 85 3 102 20 18 18 23 19 43 6
65 -41 244 -47 307 -10 55 32 74 67 78 143 3 55 0 76 -18 111 -15 30 -19 45
-11 53 6 6 11 37 11 69 0 76 -16 92 -109 109 -57 10 -83 10 -129 0 -62 -13
-64 -13 -164 -5 -58 5 -69 3 -84 -14 -16 -19 -17 -19 -35 -1 -28 28 -178 28
-203 0 -17 -19 -18 -19 -37 0 -24 24 -133 27 -165 5 -17 -13 -27 -12 -79 6
-91 31 -196 14 -257 -40 -17 -14 -18 -10 -18 74 -1 92 -7 111 -47 132 -28 15
-112 15 -138 0z m115 -323 l0 -265 -40 0 -40 0 0 265 0 265 40 0 40 0 0 -265z
m-1691 219 c27 -6 31 -11 31 -39 l0 -33 -75 5 c-89 7 -125 -9 -125 -56 0 -38
11 -45 108 -76 100 -32 114 -49 115 -139 1 -86 -15 -121 -64 -140 -45 -18
-146 -21 -201 -5 -33 9 -38 14 -38 39 l0 30 98 0 c111 0 122 6 122 62 0 45
-19 60 -99 78 -79 19 -113 53 -119 122 -5 65 14 115 56 140 28 18 129 24 191
12z m1529 -38 l3 -36 -105 0 -106 0 0 -75 0 -75 90 0 90 0 0 -35 0 -35 -90 0
-90 0 0 -95 0 -95 -45 0 -45 0 0 239 0 240 33 3 c17 2 84 2 147 2 l115 -1 3
-37z m-1177 -86 c82 -23 125 -124 101 -237 -18 -87 -74 -133 -161 -133 -97 0
-156 53 -168 148 -20 168 78 264 228 222z m688 -3 c64 -23 73 -46 74 -208 l2
-144 -34 -3 c-19 -2 -37 1 -41 7 -4 8 -17 7 -43 -4 -95 -40 -175 -7 -184 76
-11 94 40 136 153 126 l65 -5 -3 36 c-4 52 -33 65 -127 57 l-73 -6 7 28 c9 36
8 35 58 44 64 10 109 9 146 -4z m988 -6 c63 -29 86 -81 81 -186 -3 -71 -7 -86
-30 -117 -34 -44 -82 -62 -155 -56 -98 8 -146 69 -146 188 0 90 24 137 83 168
54 27 111 28 167 3z m933 4 c6 -3 10 -18 10 -33 l0 -27 -78 3 c-85 4 -110 -8
-97 -47 4 -15 21 -23 63 -31 83 -16 113 -30 123 -57 12 -33 11 -100 -2 -125
-23 -44 -128 -61 -225 -37 -39 10 -44 15 -44 39 l0 27 74 -5 c102 -6 126 1
126 37 0 28 -3 30 -57 41 -116 23 -135 39 -135 117 0 80 56 116 165 109 37 -3
72 -8 77 -11z m-2340 -14 c0 -19 1 -19 50 0 77 29 90 26 90 -20 0 -39 0 -39
-47 -45 -89 -13 -83 -2 -83 -147 l0 -129 -40 0 -40 0 0 180 0 180 35 0 c28 0
35 -4 35 -19z m1645 -118 c16 -72 33 -134 36 -137 3 -3 13 36 23 87 10 50 22
113 28 140 l10 47 53 0 c33 0 55 -5 57 -12 3 -7 16 -68 29 -135 12 -68 26
-123 29 -123 3 0 18 53 34 118 15 64 30 125 33 135 3 12 14 17 39 17 19 0 34
-2 34 -6 0 -9 -70 -287 -81 -321 -10 -32 -13 -33 -63 -33 l-53 0 -29 140 c-16
81 -31 133 -35 123 -3 -10 -17 -73 -30 -140 l-23 -123 -56 0 -56 0 -43 168
c-24 92 -46 173 -49 180 -3 10 6 12 39 10 l43 -3 31 -132z m-728 111 c-3 -3
-12 -4 -19 -1 -8 3 -5 6 6 6 11 1 17 -2 13 -5z"/>
<path d="M855 645 c-22 -21 -25 -33 -25 -93 0 -89 22 -122 80 -122 58 0 80 33
80 122 0 60 -3 72 -25 93 -15 16 -36 25 -55 25 -19 0 -40 -9 -55 -25z m65 -95
c0 -27 -4 -50 -10 -50 -9 0 -12 11 -12 45 0 40 3 55 12 55 6 0 10 -22 10 -50z"/>
<path d="M1542 513 c-22 -9 -34 -41 -22 -63 8 -15 21 -20 48 -20 67 0 82 9 82
45 0 28 -4 33 -31 39 -36 7 -58 7 -77 -1z"/>
<path d="M2509 651 c-22 -17 -24 -27 -24 -99 0 -95 16 -122 72 -122 47 0 69
14 82 51 23 65 7 160 -29 179 -30 16 -76 12 -101 -9z m69 -104 c2 -37 0 -47
-12 -47 -12 0 -16 12 -16 51 0 66 24 62 28 -4z"/>
</g>
</svg>
